<svg width="32" height="32" viewBox="0 0 32 32" fill="none" xmlns="http://www.w3.org/2000/svg">
<path d="M11.5001 19.4998H19C19 22.8943 16.72 25.8653 13.4412 26.7438C10.1624 27.6223 6.70226 26.1891 5.00499 23.2496C3.30772 20.31 3.79657 16.597 6.19686 14.197C8.59714 11.7967 12.3103 11.3076 15.25 13.0049" stroke="black" stroke-width="2" stroke-miterlimit="4.1" stroke-linecap="round" stroke-linejoin="round"/>
<path d="M15 7.85022H28.4087" stroke="black" stroke-width="1.5" stroke-linecap="round" stroke-linejoin="round"/>
<path d="M25.9797 16.1636C24.0668 15.3472 22.447 14.1553 21.2738 12.7004C20.1006 11.2456 19.4127 9.57618 19.2754 7.85022" stroke="black" stroke-width="1.5" stroke-linecap="round" stroke-linejoin="round"/>
<path d="M24.8056 8.08777C24.659 9.74629 23.9782 11.3587 22.8157 12.8002C21.6531 14.2417 20.0401 15.4738 18.1013 16.4011" stroke="black" stroke-width="1.5" stroke-linecap="round" stroke-linejoin="round"/>
<path d="M22.1257 5V6.66267" stroke="black" stroke-width="1.5" stroke-linecap="round" stroke-linejoin="round"/>
</svg>
